<svg width="4800" height="3000" viewBox="0 0 533 450" fill="none" xmlns="http://www.w3.org/2000/svg">
<mask id="mask0_422_4901" style="mask-type:alpha" maskUnits="userSpaceOnUse" x="34" y="131" width="258" height="241">
<path d="M276.131 371.42H49.6096C41.171 371.42 34.2959 364.546 34.2959 356.11V146.563C34.2959 138.127 41.171 131.252 49.6096 131.252H276.131C284.568 131.252 291.444 138.127 291.444 146.563V356.11C291.444 364.546 284.568 371.42 276.131 371.42Z" fill="black"/>
</mask>
<g mask="url(#mask0_422_4901)">
<path d="M34.2959 131.252H292.132V371.846H34.2959V131.252Z" fill="#78C8F7"/>
</g>
<path d="M151.704 422.741L108.641 448.108C103.436 451.173 96.736 449.439 93.668 444.233L77.8024 417.312C74.7345 412.106 76.4652 405.406 81.6693 402.341L124.732 376.974C129.936 373.908 136.638 375.642 139.705 380.848L155.57 407.77C158.638 412.975 156.908 419.675 151.704 422.741Z" fill="#ABE0FF"/>
<path d="M480.327 175.694L477.233 176.274L478.973 185.553L487.691 183.919L487.006 180.264C486.426 177.17 483.421 175.114 480.327 175.694Z" fill="#ABE0FF"/>
<path d="M478.973 185.553L487.691 183.919L510.781 307.079L502.062 308.713L478.973 185.553Z" fill="#ABE0FF"/>
<path d="M355.785 208.637L478.973 185.553L502.062 308.713L378.875 331.797L355.785 208.637Z" fill="#ABE0FF"/>
<path d="M354.045 199.359L477.233 176.274L478.973 185.553L355.785 208.637L354.045 199.359Z" fill="#ABE0FF"/>
<path d="M350.952 199.938C347.858 200.517 345.801 203.523 346.381 206.616L347.066 210.271L355.785 208.637L354.045 199.359L350.952 199.938Z" fill="#ABE0FF"/>
<path d="M347.066 210.271L355.785 208.637L378.875 331.797L370.156 333.431L347.066 210.271Z" fill="#ABE0FF"/>
<path d="M378.875 331.797L502.062 308.713L503.591 316.867L380.405 339.951L378.875 331.797Z" fill="#ABE0FF"/>
<path d="M370.155 331.576H380.578V340.838H370.155V331.576Z" fill="black"/>
<path d="M370.156 333.431L370.631 335.962C371.211 339.055 374.217 341.111 377.31 340.531L380.404 339.951L378.875 331.797L370.156 333.431Z" fill="#ABE0FF"/>
<path d="M506.685 316.287C509.779 315.707 511.835 312.703 511.256 309.609L510.781 307.079L502.062 308.713L503.591 316.867L506.685 316.287Z" fill="#ABE0FF"/>
<path d="M124.893 109.308H463.987V371.773H124.893V109.308Z" fill="white"/>
<path d="M133.454 116.365H452.041V362.958H133.454V116.365Z" fill="#F3F9FD"/>
<path d="M132.165 118.115H451.455V143.001H132.165V118.115Z" fill="white"/>
<path d="M443.909 131.207C443.909 134.201 441.475 136.617 438.459 136.617H418.279C415.263 136.638 412.829 134.201 412.829 131.207C412.829 128.213 415.263 125.797 418.279 125.797H438.438C441.475 125.797 443.909 128.213 443.909 131.207Z" fill="#004AAD"/>
<path d="M440.016 165.488C440.016 168.482 437.582 170.898 434.566 170.898H414.386C411.37 170.919 408.936 168.482 408.936 165.488C408.936 162.494 411.37 160.078 414.386 160.078H434.545C437.582 160.078 440.016 162.494 440.016 165.488Z" fill="#B18EFE"/>
<path d="M406.905 165.488C406.905 168.482 404.47 170.898 401.454 170.898H381.274C378.258 170.919 375.824 168.482 375.824 165.488C375.824 162.494 378.258 160.078 381.274 160.078H401.433C404.47 160.078 406.905 162.494 406.905 165.488Z" fill="#7BCEFE"/>
<path d="M406.905 192.885C406.905 195.879 404.47 198.295 401.454 198.295H381.274C378.258 198.316 375.824 195.879 375.824 192.885C375.824 189.891 378.258 187.475 381.274 187.475H401.433C404.47 187.475 406.905 189.891 406.905 192.885Z" fill="#92EAEE"/>
<path d="M406.905 221.994C406.905 224.988 404.47 227.404 401.454 227.404H381.274C378.258 227.424 375.824 224.988 375.824 221.994C375.824 219 378.258 216.584 381.274 216.584H401.433C404.47 216.584 406.905 219 406.905 221.994Z" fill="#8C52FF"/>
<path d="M440.016 221.994C440.016 224.988 437.582 227.404 434.566 227.404H414.386C411.37 227.424 408.936 224.988 408.936 221.994C408.936 219 411.37 216.584 414.386 216.584H434.545C437.582 216.584 440.016 219 440.016 221.994Z" fill="#92EAEE"/>
<path d="M440.016 249.96C440.016 252.954 437.582 255.37 434.566 255.37H414.386C411.37 255.391 408.936 252.954 408.936 249.96C408.936 246.966 411.37 244.55 414.386 244.55H434.545C437.582 244.55 440.016 246.966 440.016 249.96Z" fill="#5271FF"/>
<path d="M406.905 249.96C406.905 252.954 404.47 255.37 401.454 255.37H381.274C378.258 255.391 375.824 252.954 375.824 249.96C375.824 246.966 378.258 244.55 381.274 244.55H401.433C404.47 244.55 406.905 246.966 406.905 249.96Z" fill="#03989E"/>
<path d="M174.535 165.027C174.535 168.021 172.1 170.437 169.084 170.437H148.904C145.888 170.458 143.454 168.021 143.454 165.027C143.454 162.033 145.888 159.617 148.904 159.617H169.063C172.1 159.617 174.535 162.033 174.535 165.027Z" fill="#8D9091"/>
<path d="M213.089 165.488C213.089 168.482 210.655 170.898 207.638 170.898H187.459C184.443 170.919 182.009 168.482 182.009 165.488C182.009 162.494 184.443 160.078 187.459 160.078H207.618C210.655 160.078 213.089 162.494 213.089 165.488Z" fill="#D9D9D9"/>
<path d="M251.766 165.488C251.766 168.482 249.332 170.898 246.316 170.898H226.137C223.12 170.919 220.687 168.482 220.687 165.488C220.687 162.494 223.12 160.078 226.137 160.078H246.295C249.332 160.078 251.766 162.494 251.766 165.488Z" fill="#D9D9D9"/>
<path d="M291.872 165.488C291.872 168.482 289.437 170.898 286.421 170.898H266.241C263.225 170.919 260.791 168.482 260.791 165.488C260.791 162.494 263.225 160.078 266.241 160.078H286.4C289.437 160.078 291.872 162.494 291.872 165.488Z" fill="#D9D9D9"/>
<path d="M330.884 165.488C330.884 168.482 328.45 170.898 325.434 170.898H305.254C302.238 170.919 299.804 168.482 299.804 165.488C299.804 162.494 302.238 160.078 305.254 160.078H325.413C328.45 160.078 330.884 162.494 330.884 165.488Z" fill="#E2E5E6"/>
<path d="M367.291 165.488C367.291 168.482 364.857 170.898 361.84 170.898H341.661C338.645 170.919 336.211 168.482 336.211 165.488C336.211 162.494 338.645 160.078 341.661 160.078H361.82C364.857 160.078 367.291 162.494 367.291 165.488Z" fill="#D9D9D9"/>
<path d="M174.555 192.885C174.555 195.879 172.12 198.295 169.104 198.295H148.924C145.908 198.316 143.474 195.879 143.474 192.885C143.474 189.891 145.908 187.475 148.924 187.475H169.083C172.12 187.475 174.555 189.891 174.555 192.885Z" fill="#8D9091"/>
<path d="M213.089 192.885C213.089 195.879 210.655 198.295 207.638 198.295H187.459C184.443 198.316 182.009 195.879 182.009 192.885C182.009 189.891 184.443 187.475 187.459 187.475H207.618C210.655 187.475 213.089 189.891 213.089 192.885Z" fill="#D9D9D9"/>
<path d="M251.766 192.885C251.766 195.879 249.332 198.295 246.316 198.295H226.137C223.12 198.316 220.687 195.879 220.687 192.885C220.687 189.891 223.12 187.475 226.137 187.475H246.295C249.332 187.475 251.766 189.891 251.766 192.885Z" fill="#D9D9D9"/>
<path d="M291.872 192.885C291.872 195.879 289.437 198.295 286.421 198.295H266.241C263.225 198.316 260.791 195.879 260.791 192.885C260.791 189.891 263.225 187.475 266.241 187.475H286.4C289.437 187.475 291.872 189.891 291.872 192.885Z" fill="#D9D9D9"/>
<path d="M330.884 192.885C330.884 195.879 328.45 198.295 325.434 198.295H305.254C302.238 198.316 299.804 195.879 299.804 192.885C299.804 189.891 302.238 187.475 305.254 187.475H325.413C328.45 187.475 330.884 189.891 330.884 192.885Z" fill="#D9D9D9"/>
<path d="M367.291 192.885C367.291 195.879 364.857 198.295 361.84 198.295H341.661C338.645 198.316 336.211 195.879 336.211 192.885C336.211 189.891 338.645 187.475 341.661 187.475H361.82C364.857 187.475 367.291 189.891 367.291 192.885Z" fill="#D9D9D9"/>
<path d="M174.555 221.994C174.555 224.988 172.12 227.404 169.104 227.404H148.924C145.908 227.424 143.474 224.988 143.474 221.994C143.474 219 145.908 216.584 148.924 216.584H169.083C172.12 216.584 174.555 219 174.555 221.994Z" fill="#8D9091"/>
<path d="M213.089 221.994C213.089 224.988 210.655 227.404 207.638 227.404H187.459C184.443 227.424 182.009 224.988 182.009 221.994C182.009 219 184.443 216.584 187.459 216.584H207.618C210.655 216.584 213.089 219 213.089 221.994Z" fill="#D9D9D9"/>
<path d="M251.766 221.994C251.766 224.988 249.332 227.404 246.316 227.404H226.137C223.12 227.424 220.687 224.988 220.687 221.994C220.687 219 223.12 216.584 226.137 216.584H246.295C249.332 216.584 251.766 219 251.766 221.994Z" fill="#D9D9D9"/>
<path d="M291.872 221.994C291.872 224.988 289.437 227.404 286.421 227.404H266.241C263.225 227.424 260.791 224.988 260.791 221.994C260.791 219 263.225 216.584 266.241 216.584H286.4C289.437 216.584 291.872 219 291.872 221.994Z" fill="#D9D9D9"/>
<path d="M330.884 221.994C330.884 224.988 328.45 227.404 325.434 227.404H305.254C302.238 227.424 299.804 224.988 299.804 221.994C299.804 219 302.238 216.584 305.254 216.584H325.413C328.45 216.584 330.884 219 330.884 221.994Z" fill="#D9D9D9"/>
<path d="M367.291 221.994C367.291 224.988 364.857 227.404 361.84 227.404H341.661C338.645 227.424 336.211 224.988 336.211 221.994C336.211 219 338.645 216.584 341.661 216.584H361.82C364.857 216.584 367.291 219 367.291 221.994Z" fill="#D9D9D9"/>
<path d="M174.555 249.96C174.555 252.954 172.12 255.37 169.104 255.37H148.924C145.908 255.391 143.474 252.954 143.474 249.96C143.474 246.966 145.908 244.55 148.924 244.55H169.083C172.12 244.55 174.555 246.966 174.555 249.96Z" fill="#8D9091"/>
<path d="M213.089 249.96C213.089 252.954 210.655 255.37 207.638 255.37H187.459C184.443 255.391 182.009 252.954 182.009 249.96C182.009 246.966 184.443 244.55 187.459 244.55H207.618C210.655 244.55 213.089 246.966 213.089 249.96Z" fill="#D9D9D9"/>
<path d="M251.766 249.96C251.766 252.954 249.332 255.37 246.316 255.37H226.137C223.12 255.391 220.687 252.954 220.687 249.96C220.687 246.966 223.12 244.55 226.137 244.55H246.295C249.332 244.55 251.766 246.966 251.766 249.96Z" fill="#D9D9D9"/>
<path d="M291.872 249.96C291.872 252.954 289.437 255.37 286.421 255.37H266.241C263.225 255.391 260.791 252.954 260.791 249.96C260.791 246.966 263.225 244.55 266.241 244.55H286.4C289.437 244.55 291.872 246.966 291.872 249.96Z" fill="#D9D9D9"/>
<path d="M330.884 249.96C330.884 252.954 328.45 255.37 325.434 255.37H305.254C302.238 255.391 299.804 252.954 299.804 249.96C299.804 246.966 302.238 244.55 305.254 244.55H325.413C328.45 244.55 330.884 246.966 330.884 249.96Z" fill="#D9D9D9"/>
<path d="M367.291 249.96C367.291 252.954 364.857 255.37 361.84 255.37H341.661C338.645 255.391 336.211 252.954 336.211 249.96C336.211 246.966 338.645 244.55 341.661 244.55H361.82C364.857 244.55 367.291 246.966 367.291 249.96Z" fill="#D9D9D9"/>
<path d="M174.555 278.281C174.555 281.275 172.12 283.691 169.104 283.691H148.924C145.908 283.712 143.474 281.275 143.474 278.281C143.474 275.287 145.908 272.871 148.924 272.871H169.083C172.12 272.871 174.555 275.287 174.555 278.281Z" fill="#8D9091"/>
<path d="M213.089 278.281C213.089 281.275 210.655 283.691 207.638 283.691H187.459C184.443 283.712 182.009 281.275 182.009 278.281C182.009 275.287 184.443 272.871 187.459 272.871H207.618C210.655 272.871 213.089 275.287 213.089 278.281Z" fill="#D9D9D9"/>
<path d="M251.766 278.281C251.766 281.275 249.332 283.691 246.316 283.691H226.137C223.12 283.712 220.687 281.275 220.687 278.281C220.687 275.287 223.12 272.871 226.137 272.871H246.295C249.332 272.871 251.766 275.287 251.766 278.281Z" fill="#D9D9D9"/>
<path d="M291.872 278.281C291.872 281.275 289.437 283.691 286.421 283.691H266.241C263.225 283.712 260.791 281.275 260.791 278.281C260.791 275.287 263.225 272.871 266.241 272.871H286.4C289.437 272.871 291.872 275.287 291.872 278.281Z" fill="#D9D9D9"/>
<path d="M330.884 278.281C330.884 281.275 328.45 283.691 325.434 283.691H305.254C302.238 283.712 299.804 281.275 299.804 278.281C299.804 275.287 302.238 272.871 305.254 272.871H325.413C328.45 272.871 330.884 275.287 330.884 278.281Z" fill="#D9D9D9"/>
<path d="M367.291 278.281C367.291 281.275 364.857 283.691 361.84 283.691H341.661C338.645 283.712 336.211 281.275 336.211 278.281C336.211 275.287 338.645 272.871 341.661 272.871H361.82C364.857 272.871 367.291 275.287 367.291 278.281Z" fill="#D9D9D9"/>
<path d="M174.555 304.536C174.555 307.53 172.12 309.946 169.104 309.946H148.924C145.908 309.967 143.474 307.53 143.474 304.536C143.474 301.542 145.908 299.126 148.924 299.126H169.083C172.12 299.126 174.555 301.542 174.555 304.536Z" fill="#8D9091"/>
<path d="M213.089 304.536C213.089 307.53 210.655 309.946 207.638 309.946H187.459C184.443 309.967 182.009 307.53 182.009 304.536C182.009 301.542 184.443 299.126 187.459 299.126H207.618C210.655 299.126 213.089 301.542 213.089 304.536Z" fill="#D9D9D9"/>
<path d="M251.766 304.536C251.766 307.53 249.332 309.946 246.316 309.946H226.137C223.12 309.967 220.687 307.53 220.687 304.536C220.687 301.542 223.12 299.126 226.137 299.126H246.295C249.332 299.126 251.766 301.542 251.766 304.536Z" fill="#D9D9D9"/>
<path d="M291.872 304.536C291.872 307.53 289.437 309.946 286.421 309.946H266.241C263.225 309.967 260.791 307.53 260.791 304.536C260.791 301.542 263.225 299.126 266.241 299.126H286.4C289.437 299.126 291.872 301.542 291.872 304.536Z" fill="#D9D9D9"/>
<path d="M330.884 304.536C330.884 307.53 328.45 309.946 325.434 309.946H305.254C302.238 309.967 299.804 307.53 299.804 304.536C299.804 301.542 302.238 299.126 305.254 299.126H325.413C328.45 299.126 330.884 301.542 330.884 304.536Z" fill="#D9D9D9"/>
<path d="M367.291 304.536C367.291 307.53 364.857 309.946 361.84 309.946H341.661C338.645 309.967 336.211 307.53 336.211 304.536C336.211 301.542 338.645 299.126 341.661 299.126H361.82C364.857 299.126 367.291 301.542 367.291 304.536Z" fill="#D9D9D9"/>
<path d="M174.555 329.65C174.555 332.644 172.12 335.06 169.104 335.06H148.924C145.908 335.08 143.474 332.644 143.474 329.65C143.474 326.655 145.908 324.24 148.924 324.24H169.083C172.12 324.24 174.555 326.655 174.555 329.65Z" fill="#545454"/>
<path d="M213.089 329.65C213.089 332.644 210.655 335.06 207.638 335.06H187.459C184.443 335.08 182.009 332.644 182.009 329.65C182.009 326.655 184.443 324.24 187.459 324.24H207.618C210.655 324.24 213.089 326.655 213.089 329.65Z" fill="#D9D9D9"/>
<path d="M251.766 329.65C251.766 332.644 249.332 335.06 246.316 335.06H226.137C223.12 335.08 220.687 332.644 220.687 329.65C220.687 326.655 223.12 324.24 226.137 324.24H246.295C249.332 324.24 251.766 326.655 251.766 329.65Z" fill="#D9D9D9"/>
<path d="M291.872 329.65C291.872 332.644 289.437 335.06 286.421 335.06H266.241C263.225 335.08 260.791 332.644 260.791 329.65C260.791 326.655 263.225 324.24 266.241 324.24H286.4C289.437 324.24 291.872 326.655 291.872 329.65Z" fill="#D9D9D9"/>
<path d="M330.884 329.65C330.884 332.644 328.45 335.06 325.434 335.06H305.254C302.238 335.08 299.804 332.644 299.804 329.65C299.804 326.655 302.238 324.24 305.254 324.24H325.413C328.45 324.24 330.884 326.655 330.884 329.65Z" fill="#D9D9D9"/>
<path d="M367.291 329.65C367.291 332.644 364.857 335.06 361.84 335.06H341.661C338.645 335.08 336.211 332.644 336.211 329.65C336.211 326.655 338.645 324.24 341.661 324.24H361.82C364.857 324.24 367.291 326.655 367.291 329.65Z" fill="#D9D9D9"/>
<path d="M406.905 278.281C406.905 281.275 404.47 283.691 401.454 283.691H381.274C378.258 283.712 375.824 281.275 375.824 278.281C375.824 275.287 378.258 272.871 381.274 272.871H401.433C404.47 272.871 406.905 275.287 406.905 278.281Z" fill="#5271FF"/>
<path d="M440.016 278.281C440.016 281.275 437.582 283.691 434.566 283.691H414.386C411.37 283.712 408.936 281.275 408.936 278.281C408.936 275.287 411.37 272.871 414.386 272.871H434.545C437.582 272.871 440.016 275.287 440.016 278.281Z" fill="#92EAEE"/>
<path d="M406.905 304.536C406.905 307.53 404.47 309.946 401.454 309.946H381.274C378.258 309.967 375.824 307.53 375.824 304.536C375.824 301.542 378.258 299.126 381.274 299.126H401.433C404.47 299.126 406.905 301.542 406.905 304.536Z" fill="#8CA2FE"/>
<path d="M406.905 329.65C406.905 332.644 404.47 335.06 401.454 335.06H381.274C378.258 335.08 375.824 332.644 375.824 329.65C375.824 326.655 378.258 324.24 381.274 324.24H401.433C404.47 324.24 406.905 326.655 406.905 329.65Z" fill="#8C52FF"/>
<path d="M440.016 329.65C440.016 332.644 437.582 335.06 434.566 335.06H414.386C411.37 335.08 408.936 332.644 408.936 329.65C408.936 326.655 411.37 324.24 414.386 324.24H434.545C437.582 324.24 440.016 326.655 440.016 329.65Z" fill="#92EAEE"/>
<path d="M205.552 128.874H289.075" stroke="#88D3FF" stroke-width="12.7587" stroke-linecap="round"/>
<mask id="mask1_422_4901" style="mask-type:alpha" maskUnits="userSpaceOnUse" x="0" y="41" width="221" height="120">
<path d="M205.372 160.03H15.3146C6.87604 160.03 0 153.157 0 144.72V56.5763C0 48.1396 6.87604 41.2651 15.3146 41.2651H205.372C213.81 41.2651 220.686 48.1396 220.686 56.5763V144.72C220.686 153.157 213.81 160.03 205.372 160.03Z" fill="black"/>
</mask>
<g mask="url(#mask1_422_4901)">
<path d="M0 41.2651H220.333V159.999H0V41.2651Z" fill="white"/>
</g>
<mask id="mask2_422_4901" style="mask-type:alpha" maskUnits="userSpaceOnUse" x="406" y="0" width="127" height="149">
<path d="M517.528 148.21H422.189C413.75 148.21 406.874 141.335 406.874 132.898V15.3102C406.874 6.87449 413.75 0 422.189 0H517.528C525.966 0 532.842 6.87449 532.842 15.3102V132.898C532.842 141.335 525.966 148.21 517.528 148.21Z" fill="black"/>
</mask>
<g mask="url(#mask2_422_4901)">
<path d="M406.874 0H533.448V148.418H406.874V0Z" fill="white"/>
</g>
<mask id="mask3_422_4901" style="mask-type:alpha" maskUnits="userSpaceOnUse" x="116" y="304" width="184" height="119">
<path d="M284.49 422.877H131.989C123.551 422.877 116.676 416.003 116.676 407.566V319.422C116.676 310.986 123.551 304.112 131.989 304.112H284.49C292.928 304.112 299.804 310.986 299.804 319.422V407.566C299.804 416.003 292.928 422.877 284.49 422.877Z" fill="black"/>
</mask>
<g mask="url(#mask3_422_4901)">
<path d="M116.676 304.112H299.505V422.846H116.676V304.112Z" fill="white"/>
</g>
<mask id="mask4_422_4901" style="mask-type:alpha" maskUnits="userSpaceOnUse" x="7" y="45" width="208" height="111">
<path d="M200.073 155.747H22.0033C14.1737 155.747 7.79346 149.368 7.79346 141.541V59.7547C7.79346 51.9268 14.1737 45.5489 22.0033 45.5489H200.073C207.902 45.5489 214.282 51.9268 214.282 59.7547V141.541C214.282 149.368 207.902 155.747 200.073 155.747Z" fill="black"/>
</mask>
<g mask="url(#mask4_422_4901)">
<path d="M7.79346 45.5489H213.683V155.718H7.79346V45.5489Z" fill="#E8F7FF"/>
</g>
<path d="M422.366 20.7963H513.703" stroke="#60C5FF" stroke-width="12.7587" stroke-linecap="round"/>
<path d="M423.406 36.926H464.569" stroke="#D9D9D9" stroke-width="12.7548" stroke-linecap="round"/>
<path d="M482.366 36.926H511.697" stroke="#D9D9D9" stroke-width="12.7725" stroke-linecap="round"/>
<path d="M482.366 54.285H511.697" stroke="#EDEDED" stroke-width="12.7725" stroke-linecap="round"/>
<path d="M482.366 82.7545H511.697" stroke="#EDEDED" stroke-width="12.7725" stroke-linecap="round"/>
<path d="M482.366 96.308H511.697" stroke="#EDEDED" stroke-width="12.7725" stroke-linecap="round"/>
<path d="M482.366 112.894H511.697" stroke="#EDEDED" stroke-width="12.7725" stroke-linecap="round"/>
<path d="M482.366 68.8969H511.697" stroke="#EDEDED" stroke-width="12.7725" stroke-linecap="round"/>
<path d="M482.366 127.138H511.697" stroke="#EDEDED" stroke-width="12.7725" stroke-linecap="round"/>
<path d="M439.518 54.285H472.327" stroke="#767676" stroke-width="7.66349" stroke-linecap="round"/>
<path d="M438.997 68.8969H471.806" stroke="#767676" stroke-width="7.66349" stroke-linecap="round"/>
<path d="M438.997 82.7545H471.806" stroke="#767676" stroke-width="7.66349" stroke-linecap="round"/>
<path d="M438.997 98.9122H471.806" stroke="#767676" stroke-width="7.66349" stroke-linecap="round"/>
<path d="M439.518 112.894H472.327" stroke="#767676" stroke-width="7.66349" stroke-linecap="round"/>
<path d="M439.518 127.138H472.327" stroke="#767676" stroke-width="7.66349" stroke-linecap="round"/>
<mask id="mask5_422_4901" style="mask-type:alpha" maskUnits="userSpaceOnUse" x="418" y="49" width="13" height="13">
<path d="M424.461 49.9451C421.387 49.9451 418.896 52.4362 418.896 55.5089C418.896 58.5816 421.387 61.0727 424.461 61.0727C427.534 61.0727 430.026 58.5816 430.026 55.5089C430.026 52.4362 427.534 49.9451 424.461 49.9451Z" fill="black"/>
</mask>
<g mask="url(#mask5_422_4901)">
<path d="M418.896 49.9451H430.026V61.0727H418.896V49.9451Z" fill="#FF9494"/>
</g>
<mask id="mask6_422_4901" style="mask-type:alpha" maskUnits="userSpaceOnUse" x="418" y="64" width="13" height="12">
<path d="M424.461 64.5569C421.387 64.5569 418.896 67.048 418.896 70.1207C418.896 73.1934 421.387 75.6845 424.461 75.6845C427.534 75.6845 430.026 73.1934 430.026 70.1207C430.026 67.048 427.534 64.5569 424.461 64.5569Z" fill="black"/>
</mask>
<g mask="url(#mask6_422_4901)">
<path d="M418.896 64.5569H430.026V75.6845H418.896V64.5569Z" fill="#5CAE7F"/>
</g>
<mask id="mask7_422_4901" style="mask-type:alpha" maskUnits="userSpaceOnUse" x="418" y="78" width="13" height="12">
<path d="M424.461 78.4146C421.387 78.4146 418.896 80.9057 418.896 83.9784C418.896 87.0511 421.387 89.5422 424.461 89.5422C427.534 89.5422 430.026 87.0511 430.026 83.9784C430.026 80.9057 427.534 78.4146 424.461 78.4146Z" fill="black"/>
</mask>
<g mask="url(#mask7_422_4901)">
<path d="M418.896 78.4146H430.026V89.5422H418.896V78.4146Z" fill="#FF9494"/>
</g>
<mask id="mask8_422_4901" style="mask-type:alpha" maskUnits="userSpaceOnUse" x="418" y="93" width="13" height="12">
<path d="M424.461 93.3484C421.387 93.3484 418.896 95.8395 418.896 98.9122C418.896 101.985 421.387 104.476 424.461 104.476C427.534 104.476 430.026 101.985 430.026 98.9122C430.026 95.8395 427.534 93.3484 424.461 93.3484Z" fill="black"/>
</mask>
<g mask="url(#mask8_422_4901)">
<path d="M418.896 93.3484H430.026V104.476H418.896V93.3484Z" fill="#FF9494"/>
</g>
<mask id="mask9_422_4901" style="mask-type:alpha" maskUnits="userSpaceOnUse" x="418" y="108" width="13" height="12">
<path d="M424.461 108.554C421.387 108.554 418.896 111.045 418.896 114.118C418.896 117.19 421.387 119.68 424.461 119.68C427.534 119.68 430.026 117.19 430.026 114.118C430.026 111.045 427.534 108.554 424.461 108.554Z" fill="black"/>
</mask>
<g mask="url(#mask9_422_4901)">
<path d="M418.896 108.554H430.026V119.68H418.896V108.554Z" fill="#5CAE7F"/>
</g>
<mask id="mask10_422_4901" style="mask-type:alpha" maskUnits="userSpaceOnUse" x="419" y="122" width="12" height="12">
<path d="M424.634 122.798C421.561 122.798 419.069 125.289 419.069 128.362C419.069 131.435 421.561 133.925 424.634 133.925C427.708 133.925 430.199 131.435 430.199 128.362C430.199 125.289 427.708 122.798 424.634 122.798Z" fill="black"/>
</mask>
<g mask="url(#mask10_422_4901)">
<path d="M419.069 122.798H430.199V133.925H419.069V122.798Z" fill="#5CAE7F"/>
</g>
<path d="M136.505 322.109H279.407" stroke="#A4BEE2" stroke-width="12.7614" stroke-linecap="round"/>
<path d="M236.211 385.578H247.341V396.704H236.211V385.578Z" fill="#008037"/>
<path fill-rule="evenodd" clip-rule="evenodd" d="M225.891 348.889V380.062L176.599 380.102C179.492 382.462 181.297 385.714 181.274 389.982L230.206 389.953C230.675 373.394 254.208 373.451 254.718 389.857C258.252 389.831 258.742 389.029 258.777 385.779V373.348C258.821 367.794 259.516 371.461 255.398 360.926C251.159 349.696 252.328 350.735 248.494 350.444L225.891 348.89V348.889ZM235.682 367.269L235.486 354.025L248.069 354.803C250.364 354.956 250.383 354.971 251.191 357.627L254.41 366.197C255.491 368.826 255.319 369.6 252.361 369.216L235.682 367.268L235.682 367.269ZM141.52 380.125L141.496 387.128L149.622 390L156.755 389.995C156.727 385.934 158.417 382.519 161.415 380.12L141.52 380.125Z" fill="#64C6FF"/>
<path d="M220.854 339.515H141.456V377.397H220.854V339.515Z" fill="#64C6FF"/>
<path d="M232.781 389.72C232.781 389.403 232.796 389.087 232.827 388.772C232.858 388.457 232.905 388.144 232.966 387.834C233.029 387.523 233.106 387.216 233.197 386.913C233.289 386.61 233.396 386.312 233.517 386.02C233.639 385.727 233.774 385.441 233.924 385.162C234.074 384.883 234.237 384.612 234.412 384.348C234.589 384.085 234.778 383.831 234.979 383.586C235.18 383.341 235.393 383.107 235.617 382.883C235.841 382.659 236.076 382.447 236.321 382.245C236.566 382.045 236.821 381.856 237.085 381.681C237.348 381.505 237.62 381.342 237.9 381.193C238.18 381.043 238.465 380.909 238.759 380.787C239.052 380.666 239.35 380.559 239.653 380.467C239.957 380.376 240.264 380.299 240.575 380.237C240.887 380.175 241.2 380.129 241.515 380.098C241.831 380.066 242.148 380.051 242.464 380.051C242.782 380.051 243.098 380.066 243.414 380.098C243.729 380.129 244.043 380.175 244.354 380.237C244.665 380.299 244.972 380.376 245.275 380.467C245.579 380.559 245.877 380.666 246.17 380.787C246.463 380.909 246.75 381.043 247.03 381.193C247.309 381.342 247.581 381.505 247.845 381.681C248.108 381.856 248.363 382.045 248.609 382.245C248.854 382.447 249.088 382.659 249.312 382.883C249.537 383.107 249.749 383.341 249.95 383.586C250.152 383.831 250.34 384.085 250.517 384.348C250.693 384.612 250.856 384.883 251.005 385.162C251.155 385.441 251.29 385.727 251.411 386.02C251.533 386.312 251.639 386.61 251.732 386.913C251.824 387.216 251.901 387.523 251.962 387.834C252.025 388.144 252.071 388.457 252.102 388.772C252.133 389.087 252.149 389.403 252.149 389.72C252.149 390.036 252.133 390.352 252.102 390.668C252.071 390.982 252.025 391.295 251.962 391.606C251.901 391.916 251.824 392.223 251.732 392.526C251.639 392.829 251.533 393.127 251.411 393.419C251.29 393.712 251.155 393.998 251.005 394.277C250.856 394.556 250.693 394.828 250.517 395.091C250.34 395.354 250.152 395.608 249.95 395.853C249.749 396.098 249.537 396.332 249.312 396.556C249.088 396.78 248.854 396.992 248.609 397.193C248.363 397.394 248.108 397.583 247.845 397.758C247.581 397.935 247.309 398.097 247.03 398.246C246.75 398.395 246.463 398.531 246.17 398.652C245.877 398.773 245.579 398.88 245.275 398.971C244.972 399.064 244.665 399.14 244.354 399.202C244.043 399.263 243.729 399.31 243.414 399.341C243.098 399.372 242.782 399.388 242.464 399.388C242.148 399.388 241.831 399.372 241.515 399.341C241.2 399.31 240.887 399.263 240.575 399.202C240.264 399.14 239.957 399.064 239.653 398.971C239.35 398.88 239.052 398.773 238.759 398.652C238.465 398.531 238.18 398.395 237.9 398.246C237.62 398.097 237.348 397.935 237.085 397.758C236.821 397.583 236.566 397.394 236.321 397.193C236.076 396.992 235.841 396.78 235.617 396.556C235.393 396.332 235.18 396.098 234.979 395.853C234.778 395.608 234.589 395.354 234.412 395.091C234.237 394.828 234.074 394.556 233.924 394.277C233.774 393.998 233.639 393.712 233.517 393.419C233.396 393.127 233.289 392.829 233.197 392.526C233.106 392.223 233.029 391.916 232.966 391.606C232.905 391.295 232.858 390.982 232.827 390.668C232.796 390.352 232.781 390.036 232.781 389.72Z" fill="#64C6FF"/>
<path d="M159.333 389.72C159.333 389.403 159.349 389.087 159.379 388.772C159.411 388.457 159.457 388.144 159.519 387.834C159.581 387.523 159.658 387.216 159.75 386.913C159.842 386.61 159.948 386.312 160.07 386.02C160.192 385.727 160.327 385.441 160.477 385.162C160.626 384.883 160.789 384.612 160.965 384.348C161.141 384.085 161.33 383.831 161.531 383.586C161.733 383.341 161.945 383.107 162.17 382.883C162.394 382.659 162.628 382.447 162.874 382.245C163.119 382.045 163.373 381.856 163.637 381.681C163.9 381.505 164.172 381.342 164.452 381.193C164.732 381.043 165.018 380.909 165.311 380.787C165.604 380.666 165.903 380.559 166.206 380.467C166.51 380.376 166.816 380.299 167.128 380.237C167.439 380.175 167.752 380.129 168.068 380.098C168.383 380.066 168.7 380.051 169.017 380.051C169.334 380.051 169.651 380.066 169.966 380.098C170.282 380.129 170.595 380.175 170.906 380.237C171.217 380.299 171.525 380.376 171.828 380.467C172.132 380.559 172.43 380.666 172.723 380.787C173.016 380.909 173.302 381.043 173.582 381.193C173.862 381.342 174.133 381.505 174.397 381.681C174.66 381.856 174.916 382.045 175.161 382.245C175.406 382.447 175.64 382.659 175.865 382.883C176.089 383.107 176.302 383.341 176.503 383.586C176.704 383.831 176.892 384.085 177.069 384.348C177.245 384.612 177.408 384.883 177.557 385.162C177.707 385.441 177.842 385.727 177.964 386.02C178.085 386.312 178.192 386.61 178.284 386.913C178.376 387.216 178.453 387.523 178.515 387.834C178.577 388.144 178.623 388.457 178.654 388.772C178.686 389.087 178.701 389.403 178.701 389.72C178.701 390.036 178.686 390.352 178.654 390.668C178.623 390.982 178.577 391.295 178.515 391.606C178.453 391.916 178.376 392.223 178.284 392.526C178.192 392.829 178.085 393.127 177.964 393.419C177.842 393.712 177.707 393.998 177.557 394.277C177.408 394.556 177.245 394.828 177.069 395.091C176.892 395.354 176.704 395.608 176.503 395.853C176.302 396.098 176.089 396.332 175.865 396.556C175.64 396.78 175.406 396.992 175.161 397.193C174.916 397.394 174.66 397.583 174.397 397.758C174.133 397.935 173.862 398.097 173.582 398.246C173.302 398.395 173.016 398.531 172.723 398.652C172.43 398.773 172.132 398.88 171.828 398.971C171.525 399.064 171.217 399.14 170.906 399.202C170.595 399.263 170.282 399.31 169.966 399.341C169.651 399.372 169.334 399.388 169.017 399.388C168.7 399.388 168.383 399.372 168.068 399.341C167.752 399.31 167.439 399.263 167.128 399.202C166.816 399.14 166.51 399.064 166.206 398.971C165.903 398.88 165.604 398.773 165.311 398.652C165.018 398.531 164.732 398.395 164.452 398.246C164.172 398.097 163.9 397.935 163.637 397.758C163.373 397.583 163.119 397.394 162.874 397.193C162.628 396.992 162.394 396.78 162.17 396.556C161.945 396.332 161.733 396.098 161.531 395.853C161.33 395.608 161.141 395.354 160.965 395.091C160.789 394.828 160.626 394.556 160.477 394.277C160.327 393.998 160.192 393.712 160.07 393.419C159.948 393.127 159.842 392.829 159.75 392.526C159.658 392.223 159.581 391.916 159.519 391.606C159.457 391.295 159.411 390.982 159.379 390.668C159.349 390.352 159.333 390.036 159.333 389.72Z" fill="#64C6FF"/>
<path d="M283.804 334.459C283.804 337.453 281.37 339.869 278.354 339.869H258.174C255.158 339.889 252.724 337.453 252.724 334.459C252.724 331.465 255.158 329.049 258.174 329.049H278.333C281.37 329.049 283.804 331.465 283.804 334.459Z" fill="#D9D9D9"/>
<path d="M136.031 408.188H278.934" stroke="#DFDFDF" stroke-width="12.7614" stroke-linecap="round"/>
<mask id="mask11_422_4901" style="mask-type:alpha" maskUnits="userSpaceOnUse" x="39" y="165" width="78" height="39">
<path d="M109.571 203.223H46.2043C42.2895 203.223 39.0994 200.034 39.0994 196.12V172.637C39.0994 168.723 42.2895 165.533 46.2043 165.533H109.571C113.485 165.533 116.676 168.723 116.676 172.637V196.12C116.676 200.034 113.485 203.223 109.571 203.223Z" fill="black"/>
</mask>
<g mask="url(#mask11_422_4901)">
<path d="M39.0994 165.533H116.67V203.223H39.0994V165.533Z" fill="#C0E6FC"/>
</g>
<mask id="mask12_422_4901" style="mask-type:alpha" maskUnits="userSpaceOnUse" x="39" y="209" width="78" height="155">
<path d="M110.607 363.91H45.1693C41.8244 363.91 39.0994 361.186 39.0994 357.843V215.157C39.0994 211.814 41.8244 209.09 45.1693 209.09H110.607C113.95 209.09 116.676 211.814 116.676 215.157V357.843C116.676 361.186 113.95 363.91 110.607 363.91Z" fill="black"/>
</mask>
<g mask="url(#mask12_422_4901)">
<path d="M39.0994 209.09H116.512V363.879H39.0994V209.09Z" fill="#C0E6FC"/>
</g>
<mask id="mask13_422_4901" style="mask-type:alpha" maskUnits="userSpaceOnUse" x="28" y="51" width="12" height="12">
<path d="M34.296 51.6808C31.2226 51.6808 28.731 54.1719 28.731 57.2447C28.731 60.3174 31.2226 62.8085 34.296 62.8085C37.3694 62.8085 39.8602 60.3174 39.8602 57.2447C39.8602 54.1719 37.3694 51.6808 34.296 51.6808Z" fill="black"/>
</mask>
<g mask="url(#mask13_422_4901)">
<path d="M28.731 51.6808H39.8602V62.8085H28.731V51.6808Z" fill="#56AC7F"/>
</g>
<mask id="mask14_422_4901" style="mask-type:alpha" maskUnits="userSpaceOnUse" x="16" y="67" width="12" height="12">
<path d="M21.7455 67.2877C18.6721 67.2877 16.1804 69.7788 16.1804 72.8506C16.1804 75.9234 18.6721 78.4144 21.7455 78.4144C24.8189 78.4144 27.3096 75.9234 27.3096 72.8506C27.3096 69.7788 24.8189 67.2877 21.7455 67.2877Z" fill="black"/>
</mask>
<g mask="url(#mask14_422_4901)">
<path d="M16.1804 67.2877H27.3096V78.4144H16.1804V67.2877Z" fill="#F9E895"/>
</g>
<mask id="mask15_422_4901" style="mask-type:alpha" maskUnits="userSpaceOnUse" x="28" y="67" width="12" height="12">
<path d="M34.296 67.2877C31.2226 67.2877 28.731 69.7788 28.731 72.8506C28.731 75.9234 31.2226 78.4144 34.296 78.4144C37.3694 78.4144 39.8602 75.9234 39.8602 72.8506C39.8602 69.7788 37.3694 67.2877 34.296 67.2877Z" fill="black"/>
</mask>
<g mask="url(#mask15_422_4901)">
<path d="M28.731 67.2877H39.8602V78.4144H28.731V67.2877Z" fill="#5689CB"/>
</g>
<mask id="mask16_422_4901" style="mask-type:alpha" maskUnits="userSpaceOnUse" x="16" y="51" width="12" height="12">
<path d="M21.7455 51.6808C18.6721 51.6808 16.1804 54.1719 16.1804 57.2447C16.1804 60.3174 18.6721 62.8085 21.7455 62.8085C24.8189 62.8085 27.3096 60.3174 27.3096 57.2447C27.3096 54.1719 24.8189 51.6808 21.7455 51.6808Z" fill="black"/>
</mask>
<g mask="url(#mask16_422_4901)">
<path d="M16.1804 51.6808H27.3096V62.8085H16.1804V51.6808Z" fill="#F99194"/>
</g>
<path d="M208.197 63.9193C208.197 71.6377 201.939 77.8944 194.219 77.8944C186.5 77.8944 180.242 71.6377 180.242 63.9193C180.242 56.2018 186.5 49.9451 194.219 49.9451C201.939 49.9451 208.197 56.2018 208.197 63.9193Z" fill="#8EC9AF"/>
<path d="M192.848 70.4292L186.953 64.5353L189.176 62.3119L192.848 65.9834L200.313 58.521L202.536 60.7444L192.848 70.4292Z" fill="#FEFFFD"/>
<path d="M473.465 402.767L441.285 423.053C437.397 425.504 432.389 424.118 430.097 419.955L418.241 398.425C415.948 394.262 417.242 388.904 421.131 386.452L453.31 366.166C457.199 363.715 462.207 365.101 464.499 369.264L476.355 390.794C478.648 394.957 477.354 400.316 473.465 402.767Z" fill="#CAE5F4"/>
<path d="M154.083 84.2029C154.083 83.6846 153.807 83.2061 153.358 82.9465L115.651 61.1779C115.204 60.9192 114.65 60.9192 114.202 61.1779L89.7749 75.2797C89.7731 75.2797 89.7731 75.2824 89.7713 75.2824L76.4996 82.9447C76.4969 82.9465 76.4951 82.9465 76.4933 82.9465C76.4363 82.9791 76.382 83.0162 76.3322 83.056C75.9767 83.3283 75.7659 83.7525 75.7659 84.2048C75.7659 84.2156 75.7677 84.2265 75.7677 84.2373L75.7659 127.743C75.7659 128.261 76.0427 128.74 76.4906 128.998L114.199 150.768C114.424 150.898 114.674 150.962 114.925 150.962C115.175 150.962 115.425 150.896 115.65 150.768L153.358 128.998C153.807 128.74 154.083 128.261 154.083 127.743V84.2029ZM138.608 93.9729V100.055L129.929 105.066V98.984L138.608 93.9729ZM90.5303 78.195L125.335 98.2875L114.927 104.295L80.1204 84.2029L90.5303 78.195ZM102.354 71.3684L137.159 91.461L128.235 96.6114L93.43 76.5189L102.354 71.3684ZM114.925 64.1104L149.729 84.2029L140.059 89.7867L105.254 69.6914L114.925 64.1104ZM78.6701 86.7194L113.475 106.81V147L78.6683 126.907L78.6701 86.7194ZM116.377 146.997V106.807L127.029 100.658V107.578C127.029 108.096 127.305 108.575 127.754 108.834C127.979 108.965 128.228 109.028 128.479 109.028C128.729 109.028 128.979 108.963 129.204 108.834L140.786 102.149C141.234 101.89 141.511 101.411 141.511 100.893V92.2986L151.182 86.7148L151.183 126.904L116.377 146.997ZM133.747 116.784C133.298 116.525 132.746 116.525 132.298 116.784L121.24 123.167C120.791 123.426 120.515 123.905 120.515 124.423V137.19C120.515 137.708 120.791 138.188 121.24 138.446C121.464 138.577 121.715 138.64 121.965 138.64C122.215 138.64 122.466 138.575 122.69 138.446L133.747 132.061C134.196 131.802 134.472 131.324 134.472 130.806V118.038C134.472 117.523 134.196 117.043 133.747 116.784ZM123.415 134.678V125.261L131.57 120.553V129.97L123.415 134.678ZM91.6016 128.472C91.3338 128.938 90.8461 129.197 90.3431 129.197C90.097 129.197 89.8473 129.134 89.6184 129.003L82.0945 124.658C81.3997 124.258 81.1627 123.369 81.5635 122.677C81.9643 121.983 82.85 121.746 83.5448 122.146L91.0687 126.491C91.7626 126.892 92.0024 127.777 91.6016 128.472Z" fill="#38B6FF"/>
<path d="M193.274 120.189C192.905 120.189 192.537 120.207 192.17 120.243C191.802 120.279 191.439 120.333 191.077 120.405C190.715 120.477 190.358 120.566 190.005 120.673C189.651 120.78 189.304 120.904 188.963 121.045C188.623 121.186 188.289 121.343 187.964 121.517C187.639 121.691 187.323 121.88 187.016 122.084C186.71 122.289 186.414 122.508 186.129 122.742C185.843 122.976 185.571 123.223 185.309 123.483C185.049 123.744 184.802 124.016 184.567 124.301C184.333 124.586 184.114 124.882 183.909 125.187C183.704 125.494 183.514 125.81 183.34 126.135C183.167 126.459 183.009 126.792 182.868 127.132C182.727 127.472 182.602 127.819 182.495 128.172C182.389 128.524 182.299 128.881 182.227 129.243C182.155 129.603 182.101 129.967 182.065 130.334C182.028 130.701 182.01 131.068 182.01 131.436C182.01 131.805 182.028 132.172 182.065 132.539C182.101 132.906 182.155 133.27 182.227 133.63C182.299 133.992 182.389 134.349 182.495 134.701C182.602 135.054 182.727 135.401 182.868 135.741C183.009 136.081 183.167 136.414 183.34 136.738C183.514 137.063 183.704 137.379 183.909 137.685C184.114 137.991 184.333 138.287 184.567 138.572C184.802 138.857 185.049 139.129 185.309 139.39C185.571 139.65 185.843 139.897 186.129 140.131C186.414 140.365 186.71 140.584 187.016 140.789C187.323 140.993 187.639 141.182 187.964 141.356C188.289 141.53 188.623 141.687 188.963 141.828C189.304 141.968 189.651 142.093 190.005 142.2C190.358 142.307 190.715 142.396 191.077 142.468C191.439 142.54 191.802 142.593 192.17 142.63C192.537 142.666 192.905 142.684 193.274 142.684C193.643 142.684 194.011 142.666 194.378 142.63C194.745 142.593 195.109 142.54 195.471 142.468C195.833 142.396 196.19 142.307 196.543 142.2C196.897 142.093 197.244 141.968 197.585 141.828C197.925 141.687 198.258 141.53 198.583 141.356C198.909 141.182 199.225 140.993 199.532 140.789C199.838 140.584 200.134 140.365 200.419 140.131C200.704 139.897 200.977 139.65 201.239 139.39C201.499 139.129 201.746 138.857 201.981 138.572C202.215 138.287 202.434 137.991 202.639 137.685C202.844 137.379 203.034 137.063 203.208 136.738C203.381 136.414 203.539 136.081 203.68 135.741C203.821 135.401 203.945 135.054 204.053 134.701C204.159 134.349 204.249 133.992 204.321 133.63C204.393 133.27 204.447 132.906 204.483 132.539C204.519 132.172 204.538 131.805 204.538 131.436C204.537 131.068 204.519 130.701 204.482 130.334C204.445 129.968 204.391 129.604 204.319 129.243C204.246 128.882 204.157 128.525 204.05 128.172C203.942 127.821 203.818 127.474 203.676 127.134C203.535 126.794 203.378 126.462 203.204 126.137C203.029 125.812 202.84 125.497 202.635 125.191C202.43 124.884 202.211 124.59 201.977 124.305C201.743 124.02 201.496 123.747 201.234 123.487C200.974 123.226 200.701 122.979 200.416 122.746C200.131 122.512 199.835 122.293 199.529 122.089C199.222 121.884 198.906 121.694 198.581 121.52C198.256 121.347 197.923 121.189 197.582 121.048C197.242 120.907 196.895 120.783 196.542 120.676C196.189 120.569 195.832 120.479 195.47 120.407C195.109 120.335 194.745 120.28 194.377 120.244C194.011 120.208 193.643 120.189 193.274 120.189ZM193.274 141.352C192.949 141.352 192.624 141.335 192.301 141.304C191.977 141.272 191.656 141.224 191.336 141.161C191.018 141.097 190.703 141.019 190.392 140.925C190.081 140.831 189.775 140.721 189.474 140.597C189.174 140.472 188.88 140.334 188.593 140.181C188.306 140.027 188.028 139.861 187.758 139.681C187.488 139.5 187.226 139.307 186.975 139.101C186.724 138.895 186.483 138.677 186.254 138.447C186.023 138.218 185.805 137.978 185.599 137.726C185.392 137.476 185.199 137.215 185.019 136.945C184.838 136.675 184.671 136.397 184.517 136.111C184.365 135.824 184.225 135.531 184.101 135.231C183.976 134.931 183.867 134.625 183.773 134.315C183.678 134.004 183.599 133.689 183.536 133.371C183.472 133.052 183.424 132.731 183.393 132.408C183.361 132.085 183.345 131.762 183.345 131.437C183.345 131.112 183.361 130.788 183.393 130.465C183.424 130.142 183.472 129.821 183.536 129.502C183.599 129.184 183.678 128.87 183.773 128.559C183.867 128.248 183.976 127.943 184.101 127.642C184.225 127.343 184.365 127.049 184.517 126.763C184.67 126.476 184.838 126.199 185.019 125.928C185.199 125.659 185.392 125.398 185.599 125.147C185.805 124.896 186.023 124.656 186.253 124.426C186.483 124.196 186.724 123.979 186.975 123.773C187.226 123.567 187.488 123.374 187.757 123.193C188.028 123.013 188.306 122.846 188.593 122.693C188.88 122.54 189.174 122.401 189.474 122.277C189.775 122.153 190.081 122.043 190.392 121.949C190.703 121.855 191.018 121.776 191.336 121.712C191.656 121.649 191.977 121.602 192.301 121.57C192.624 121.538 192.949 121.522 193.274 121.522C193.599 121.522 193.923 121.538 194.247 121.569C194.571 121.602 194.892 121.649 195.211 121.712C195.53 121.776 195.845 121.854 196.156 121.949C196.467 122.043 196.773 122.153 197.073 122.277C197.374 122.401 197.667 122.54 197.954 122.693C198.241 122.846 198.519 123.012 198.79 123.193C199.06 123.373 199.321 123.567 199.572 123.773C199.824 123.978 200.065 124.196 200.294 124.426C200.524 124.656 200.742 124.895 200.948 125.147C201.155 125.397 201.348 125.658 201.529 125.928C201.71 126.198 201.877 126.476 202.031 126.763C202.183 127.049 202.323 127.342 202.447 127.642C202.572 127.943 202.681 128.248 202.775 128.559C202.869 128.869 202.949 129.184 203.012 129.502C203.075 129.821 203.123 130.142 203.155 130.465C203.187 130.787 203.203 131.111 203.203 131.436C203.202 131.761 203.186 132.085 203.154 132.407C203.122 132.731 203.074 133.052 203.01 133.37C202.946 133.688 202.867 134.003 202.772 134.313C202.678 134.624 202.569 134.929 202.444 135.229C202.319 135.529 202.181 135.822 202.027 136.108C201.874 136.394 201.707 136.672 201.526 136.942C201.346 137.212 201.152 137.472 200.946 137.723C200.739 137.974 200.521 138.215 200.292 138.443C200.062 138.673 199.821 138.891 199.57 139.097C199.318 139.303 199.058 139.496 198.787 139.676C198.517 139.857 198.239 140.024 197.952 140.177C197.665 140.33 197.372 140.469 197.072 140.594C196.771 140.717 196.465 140.827 196.155 140.922C195.844 141.016 195.529 141.096 195.211 141.159C194.891 141.222 194.57 141.27 194.247 141.303C193.923 141.334 193.599 141.351 193.274 141.352ZM193.274 117.316C192.811 117.316 192.349 117.34 191.888 117.386C191.428 117.431 190.97 117.5 190.517 117.59C190.063 117.681 189.614 117.793 189.171 117.928C188.728 118.062 188.293 118.218 187.865 118.395C187.438 118.573 187.02 118.77 186.611 118.988C186.203 119.206 185.807 119.444 185.422 119.701C185.037 119.957 184.666 120.232 184.308 120.526C183.95 120.819 183.607 121.13 183.28 121.456C182.952 121.784 182.642 122.126 182.348 122.483C182.055 122.84 181.779 123.211 181.522 123.595C181.264 123.98 181.026 124.376 180.808 124.783C180.59 125.191 180.392 125.608 180.214 126.035C180.037 126.462 179.881 126.897 179.746 127.339C179.611 127.782 179.499 128.229 179.408 128.683C179.317 129.136 179.249 129.593 179.203 130.053C179.157 130.513 179.134 130.974 179.133 131.436C179.133 134.492 180.168 137.504 182.294 140.641C185.079 144.751 192.458 153.198 192.771 153.556C192.803 153.592 192.837 153.623 192.875 153.651C192.913 153.68 192.955 153.704 192.998 153.724C193.041 153.744 193.086 153.758 193.133 153.768C193.179 153.779 193.226 153.784 193.274 153.784C193.321 153.784 193.369 153.779 193.416 153.768C193.462 153.758 193.507 153.744 193.55 153.724C193.594 153.704 193.635 153.68 193.673 153.651C193.71 153.623 193.746 153.592 193.777 153.556C194.09 153.198 201.47 144.751 204.255 140.641C206.381 137.504 207.415 134.492 207.415 131.436C207.414 130.974 207.391 130.512 207.345 130.053C207.299 129.593 207.231 129.136 207.14 128.683C207.049 128.229 206.937 127.782 206.802 127.339C206.667 126.897 206.512 126.462 206.334 126.035C206.156 125.608 205.959 125.191 205.74 124.783C205.522 124.375 205.284 123.98 205.026 123.595C204.769 123.211 204.493 122.84 204.2 122.483C203.906 122.126 203.596 121.784 203.268 121.456C202.941 121.13 202.598 120.819 202.24 120.526C201.882 120.232 201.511 119.957 201.127 119.701C200.741 119.444 200.345 119.206 199.937 118.988C199.528 118.77 199.11 118.573 198.683 118.395C198.255 118.218 197.82 118.062 197.377 117.928C196.934 117.793 196.485 117.681 196.031 117.59C195.578 117.5 195.12 117.431 194.66 117.386C194.199 117.34 193.737 117.316 193.274 117.316ZM203.15 139.893C200.823 143.325 195.018 150.087 193.274 152.1C191.53 150.087 185.725 143.326 183.398 139.893C181.428 136.984 180.469 134.217 180.469 131.436C180.469 131.018 180.49 130.6 180.53 130.183C180.572 129.767 180.633 129.353 180.716 128.942C180.797 128.532 180.899 128.126 181.021 127.726C181.143 127.325 181.284 126.931 181.445 126.545C181.605 126.158 181.785 125.78 181.982 125.411C182.18 125.042 182.396 124.683 182.628 124.335C182.862 123.987 183.111 123.652 183.377 123.328C183.643 123.004 183.925 122.695 184.222 122.399C184.517 122.102 184.828 121.822 185.153 121.556C185.476 121.291 185.813 121.041 186.161 120.809C186.51 120.576 186.87 120.362 187.239 120.165C187.609 119.966 187.987 119.788 188.375 119.628C188.762 119.468 189.157 119.327 189.558 119.206C189.959 119.084 190.365 118.982 190.776 118.901C191.188 118.82 191.602 118.758 192.02 118.716C192.437 118.676 192.855 118.655 193.274 118.655C193.693 118.655 194.111 118.676 194.528 118.716C194.946 118.758 195.36 118.82 195.772 118.901C196.182 118.982 196.588 119.084 196.99 119.206C197.391 119.327 197.785 119.468 198.173 119.628C198.56 119.788 198.939 119.966 199.309 120.165C199.678 120.362 200.037 120.576 200.387 120.809C200.735 121.041 201.071 121.291 201.395 121.556C201.719 121.822 202.031 122.102 202.326 122.399C202.623 122.695 202.904 123.004 203.17 123.328C203.436 123.652 203.686 123.987 203.92 124.335C204.152 124.683 204.367 125.042 204.566 125.411C204.763 125.78 204.942 126.158 205.103 126.545C205.263 126.931 205.404 127.325 205.526 127.726C205.649 128.126 205.751 128.532 205.832 128.942C205.915 129.353 205.976 129.767 206.017 130.183C206.058 130.6 206.079 131.018 206.079 131.436C206.079 134.217 205.12 136.984 203.15 139.893ZM201.018 127.397C201.022 127.274 200.994 127.158 200.933 127.05C200.873 126.942 200.789 126.857 200.682 126.796L193.607 122.739C193.504 122.68 193.393 122.65 193.274 122.65C193.155 122.65 193.044 122.68 192.941 122.739L185.865 126.796C185.758 126.858 185.675 126.944 185.614 127.054C185.554 127.162 185.527 127.279 185.533 127.403C185.533 127.414 185.529 127.425 185.529 127.436V135.496C185.529 135.615 185.559 135.727 185.619 135.83C185.679 135.934 185.761 136.016 185.865 136.075L192.941 140.133C193.044 140.193 193.155 140.223 193.274 140.223C193.394 140.223 193.506 140.193 193.609 140.133L200.683 136.076C200.787 136.017 200.87 135.934 200.929 135.831C200.99 135.727 201.02 135.616 201.02 135.496L201.018 127.397ZM193.274 130.081L191.677 129.304L197.006 126.232L198.92 127.329L193.274 130.081ZM189.621 128.3L195.149 125.166L195.662 125.46L190.225 128.595L189.621 128.3ZM188.857 129.416L189.58 129.771V132.736L188.857 132.403V129.416ZM193.274 124.09L193.8 124.392L188.163 127.589L187.629 127.328L193.274 124.09ZM186.867 135.108V128.446L187.518 128.763V132.828C187.518 132.958 187.553 133.079 187.622 133.189C187.693 133.298 187.787 133.381 187.906 133.436L189.97 134.39C190.021 134.414 190.074 134.431 190.13 134.441C190.185 134.451 190.241 134.454 190.297 134.451C190.353 134.447 190.408 134.436 190.462 134.418C190.515 134.401 190.565 134.378 190.613 134.347C190.66 134.317 190.703 134.281 190.741 134.24C190.779 134.199 190.813 134.154 190.84 134.104C190.866 134.056 190.887 134.004 190.9 133.949C190.915 133.895 190.922 133.839 190.922 133.783V130.422L192.606 131.243V138.399L186.867 135.108ZM193.944 138.398V131.243L199.681 128.445V135.108L193.944 138.398Z" fill="#38B6FF"/>
</svg>
