<svg width="475" height="450" viewBox="0 0 457 293" fill="none" xmlns="http://www.w3.org/2000/svg">
<path d="M163.4 266.758L129.775 286.569C125.712 288.964 120.48 287.609 118.084 283.544L105.696 262.518C103.3 258.453 104.652 253.219 108.715 250.825L142.34 231.014C146.404 228.62 151.636 229.973 154.031 234.039L166.42 255.065C168.815 259.131 167.464 264.364 163.4 266.758Z" fill="#64C6FF"/>
<path d="M326.304 288.091L308.153 253.541C305.96 249.366 307.567 244.205 311.744 242.011L333.348 230.661C337.525 228.466 342.687 230.071 344.88 234.247L363.031 268.796C365.225 272.972 363.618 278.131 359.44 280.326L337.836 291.676C333.658 293.871 328.498 292.266 326.304 288.091Z" fill="#38B6FF"/>
<path d="M77.0176 76.4994L38.501 82.789C33.8461 83.5491 29.4591 80.392 28.6982 75.735L24.7654 51.6499C24.0052 46.9929 27.1595 42.6044 31.8144 41.8443L70.3317 35.5547C74.9865 34.7946 79.3736 37.9517 80.1338 42.6087L84.0666 66.6938C84.8275 71.3508 81.6724 75.7393 77.0176 76.4994Z" fill="#38B6FF"/>
<path d="M346.443 180.821H309.685C309.476 116.822 309.009 105.25 315.089 88.7162C332.614 88.7162 353.591 91.7624 374.37 107.855H346.443V180.821ZM335.647 102.573C331.361 101.123 327.014 100.595 323.391 100.595C323.378 100.607 323.378 100.607 323.378 100.619C323.33 106.307 323.022 110.791 326.977 110.791C330.084 110.791 331.017 110.791 335.512 110.791C338.496 110.791 337.514 107.032 335.647 102.573ZM384.515 116.797C396.956 116.797 397.275 117.768 401.217 124.254L397.471 124.241C401.303 131.182 408.746 145.664 408.746 145.664C442.347 151.021 444.423 162.948 444.423 162.948L448.414 180.637C451.202 183.843 453.105 187.54 454.432 191.668H436.477C431.539 185.059 423.692 180.747 414.837 180.747C399.964 180.747 387.843 192.859 387.843 207.747C387.843 208.607 387.794 210.561 387.794 210.561L355.359 210.585V116.773H384.502C384.515 116.785 384.515 116.785 384.515 116.797ZM366.94 139.093C366.94 147.396 384.65 146.463 397.484 149.694L386.112 128.074L366.94 128.037C366.94 128.037 366.94 135.911 366.94 139.093ZM440.836 200.573C441.475 202.871 441.844 205.254 441.844 207.747C441.844 208.705 441.782 209.627 441.684 210.548H456.864C456.864 206.986 456.692 203.731 456.311 200.573H440.836ZM0 67.3177H300.548V180.686H0V67.3177ZM396.759 207.747C396.759 217.747 404.852 225.841 414.837 225.841C424.834 225.841 432.928 217.747 432.928 207.747C432.928 197.76 424.834 189.666 414.837 189.666C404.852 189.666 396.759 197.76 396.759 207.747ZM414.837 215.142C410.76 215.142 407.456 211.826 407.456 207.747C407.456 203.669 410.76 200.365 414.837 200.365C418.914 200.365 422.23 203.669 422.23 207.747C422.23 211.826 418.914 215.142 414.837 215.142ZM255.463 207.747C255.463 217.747 263.556 225.841 273.553 225.841C283.526 225.841 291.632 217.747 291.632 207.747C291.632 197.76 283.526 189.666 273.553 189.666C263.556 189.666 255.463 197.76 255.463 207.747ZM273.553 215.142C269.476 215.142 266.16 211.826 266.16 207.747C266.16 203.669 269.476 200.365 273.553 200.365C277.618 200.365 280.935 203.669 280.935 207.747C280.935 211.826 277.618 215.142 273.553 215.142ZM196.746 207.747C196.746 217.747 204.839 225.841 214.824 225.841C224.821 225.841 232.915 217.747 232.915 207.747C232.915 197.76 224.821 189.666 214.824 189.666C204.839 189.666 196.746 197.76 196.746 207.747ZM214.824 215.142C210.759 215.142 207.443 211.826 207.443 207.747C207.443 203.669 210.759 200.365 214.824 200.365C218.901 200.365 222.23 203.669 222.23 207.747C222.23 211.826 218.901 215.142 214.824 215.142ZM80.2829 207.747C80.2829 217.747 88.3761 225.841 98.3604 225.841C108.333 225.841 116.439 217.747 116.439 207.747C116.439 197.76 108.333 189.666 98.3604 189.666C88.3761 189.666 80.2829 197.76 80.2829 207.747ZM98.3604 215.142C94.2835 215.142 90.9674 211.826 90.9674 207.747C90.9674 203.669 94.2835 200.365 98.3604 200.365C102.426 200.365 105.741 203.669 105.741 207.747C105.741 211.826 102.426 215.142 98.3604 215.142ZM246.706 210.585C246.608 209.651 246.559 208.717 246.559 207.747C246.559 200.819 249.199 194.505 253.498 189.727H234.867C239.178 194.505 241.831 200.819 241.831 207.747C241.831 208.717 241.769 209.651 241.671 210.585H246.706ZM71.3541 207.747C71.3541 200.819 74.0068 194.505 78.3176 189.727H60.5587C64.8575 194.505 67.5102 200.819 67.5102 207.747C67.5102 208.717 67.4488 209.651 67.3626 210.585H71.5137C71.4155 209.651 71.3541 208.717 71.3541 207.747ZM300.388 210.573L346.443 210.585V189.727H293.596C297.895 194.505 300.548 200.819 300.548 207.747C300.548 208.705 300.486 209.639 300.388 210.573ZM125.195 210.585H134.124C134.197 209.651 134.259 208.717 134.259 207.747C134.259 201.175 132.454 195.033 129.359 189.727H118.404C122.702 194.505 125.355 200.819 125.355 207.747C125.355 208.717 125.293 209.651 125.195 210.585ZM183.839 189.727C180.744 195.033 178.938 201.175 178.938 207.747C178.938 208.717 178.999 209.651 179.074 210.585H188.002C187.892 209.651 187.842 208.717 187.842 207.747C187.842 200.819 190.483 194.505 194.794 189.727H183.839ZM4.60538 207.747C4.60538 208.717 4.67885 209.651 4.75303 210.585H13.6812C13.571 209.651 13.5215 208.717 13.5215 207.747C13.5215 200.819 16.1623 194.505 20.4731 189.727H9.50535C6.41108 195.033 4.60538 201.175 4.60538 207.747ZM22.4257 207.747C22.4257 217.747 30.5316 225.841 40.5159 225.841C50.5009 225.841 58.5941 217.747 58.5941 207.747C58.5941 197.76 50.5009 189.666 40.5159 189.666C30.5316 189.666 22.4257 197.76 22.4257 207.747ZM40.5159 215.142C36.4382 215.142 33.1228 211.826 33.1228 207.747C33.1228 203.669 36.4382 200.365 40.5159 200.365C44.5936 200.365 47.9089 203.669 47.9089 207.747C47.9089 211.826 44.5936 215.142 40.5159 215.142Z" fill="#64C6FF"/>
<path d="M352.419 0.202309L390.53 8.61053C395.135 9.62642 398.043 14.1823 397.026 18.7905L391.769 42.6214C390.752 47.2296 386.197 50.1395 381.592 49.1236L343.48 40.7154C338.875 39.6988 335.967 35.1429 336.985 30.5347L342.242 6.70381C343.259 2.09561 347.813 -0.813574 352.419 0.202309Z" fill="#00A1FF"/>
<path d="M222.304 69.1806L193.611 75.7779C190.144 76.5751 186.651 74.5661 185.806 71.2891L181.439 54.342C180.594 51.0651 182.719 47.7644 186.187 46.9672L214.879 40.3699C218.347 39.5726 221.84 41.5812 222.684 44.8581L227.052 61.8057C227.897 65.0827 225.771 68.3833 222.304 69.1806Z" fill="#ABE0FF"/>
</svg>
