<svg width="50" height="50" viewBox="0 0 50 50" fill="none" xmlns="http://www.w3.org/2000/svg">
<rect width="50" height="50" rx="9" fill="#0066FF"/>
<path fill-rule="evenodd" clip-rule="evenodd" d="M29.5421 21.8173L29.5421 21.8173L30.3658 22.4226C30.8619 22.7898 31.0108 23.4745 30.7031 24.0103L29.9688 25.3202C29.6612 25.8759 28.9864 26.0942 28.4208 25.8263L27.5078 25.3996C27.3193 25.5286 27.1407 25.6378 26.9422 25.737L26.843 26.7988C26.7835 27.4239 26.2674 27.9003 25.6423 27.9003H24.1736C23.5485 27.9003 23.0324 27.4239 22.9729 26.7988L22.8737 25.737C22.6752 25.6378 22.4966 25.5286 22.3081 25.3996L21.3951 25.8263C20.8295 26.0942 20.1547 25.866 19.8471 25.3202L19.1128 24.0103C18.8051 23.4745 18.954 22.7898 19.4501 22.4226L20.2738 21.8173C20.2639 21.6982 20.2539 21.5791 20.2539 21.4501C20.2539 21.3211 20.2639 21.2021 20.2738 21.083L19.4501 20.4777C18.954 20.1105 18.8051 19.4258 19.1128 18.8899L19.8471 17.5801C20.1547 17.0343 20.8295 16.806 21.3951 17.074L22.3081 17.5007C22.4966 17.3717 22.6752 17.2625 22.8737 17.1633L22.9729 16.1015C23.0324 15.4763 23.5485 15 24.1736 15H25.6423C26.2674 15 26.7835 15.4763 26.843 16.1015L26.9422 17.1633C27.1407 17.2625 27.3193 17.3717 27.5078 17.5007L28.4208 17.074C28.9864 16.806 29.6612 17.0243 29.9688 17.5801L30.7031 18.8899C31.0108 19.4258 30.8619 20.1105 30.3658 20.4777L29.5421 21.083L29.5421 21.083C29.552 21.2021 29.562 21.3211 29.562 21.4501C29.562 21.5791 29.552 21.6982 29.5421 21.8173ZM24.908 23.931C26.2774 23.931 27.3888 22.8195 27.3888 21.4501C27.3888 20.0807 26.2774 18.9693 24.908 18.9693C23.5385 18.9693 22.4271 20.0807 22.4271 21.4501C22.4271 22.8195 23.5385 23.931 24.908 23.931Z" fill="#F5F9FE"/>
<path fill-rule="evenodd" clip-rule="evenodd" d="M33.8389 28.8926H15.977C14.3357 28.8926 13 30.2283 13 31.8696C13 33.5109 14.3357 34.8465 15.977 34.8465H33.8389C35.4802 34.8465 36.8159 33.5109 36.8159 31.8696C36.8159 30.2283 35.4802 28.8926 33.8389 28.8926ZM16.9693 32.8619C16.4225 32.8619 15.977 32.4163 15.977 31.8696C15.977 31.3228 16.4225 30.8772 16.9693 30.8772C17.5161 30.8772 17.9616 31.3228 17.9616 31.8696C17.9616 32.4163 17.5161 32.8619 16.9693 32.8619ZM20.9386 31.8696C20.9386 32.4163 21.3842 32.8619 21.931 32.8619C22.4777 32.8619 22.9233 32.4163 22.9233 31.8696C22.9233 31.3228 22.4777 30.8772 21.931 30.8772C21.3842 30.8772 20.9386 31.3228 20.9386 31.8696ZM27.8849 32.8619C27.3382 32.8619 26.8926 32.4163 26.8926 31.8696C26.8926 31.3228 27.3382 30.8772 27.8849 30.8772C28.4317 30.8772 28.8773 31.3228 28.8773 31.8696C28.8773 32.4163 28.4317 32.8619 27.8849 32.8619ZM31.8542 31.8696C31.8542 32.4163 32.2998 32.8619 32.8466 32.8619C33.3933 32.8619 33.8389 32.4163 33.8389 31.8696C33.8389 31.3228 33.3933 30.8772 32.8466 30.8772C32.2998 30.8772 31.8542 31.3228 31.8542 31.8696Z" fill="#F5F9FE"/>
</svg>
