<svg width="223" height="34" viewBox="0 0 223 34" fill="none" xmlns="http://www.w3.org/2000/svg">
<mask id="mask0_160_5766" style="mask-type:luminance" maskUnits="userSpaceOnUse" x="13" y="0" width="35" height="10">
<path d="M13.7742 0.756836H47.498V9.38501H13.7742V0.756836Z" fill="white"/>
</mask>
<g mask="url(#mask0_160_5766)">
<path d="M30.5736 0.759766L28.0468 1.33292L41.402 4.31889L30.6229 7.48974L17.0582 3.8166L14.0137 4.50378L30.5736 9.15375L47.2321 4.52843L30.5736 0.759766Z" fill="#5CE1E6"/>
</g>
<mask id="mask1_160_5766" style="mask-type:luminance" maskUnits="userSpaceOnUse" x="31" y="6" width="17" height="28">
<path d="M31.1323 6.23022H47.5012V33.298H31.1323V6.23022Z" fill="white"/>
</mask>
<g mask="url(#mask1_160_5766)">
<path d="M45.0796 7.287V22.6143L34.0325 28.1025V10.3562L31.6135 11.0279V33.304L47.4986 24.1335V6.61523L45.0796 7.287Z" fill="#5CE1E6"/>
</g>
<mask id="mask2_160_5766" style="mask-type:luminance" maskUnits="userSpaceOnUse" x="5" y="6" width="25" height="28">
<path d="M5.09766 6.23022H29.5524V33.298H5.09766V6.23022Z" fill="white"/>
</mask>
<g mask="url(#mask2_160_5766)">
<path d="M13.6482 6.56543V10.6515H15.494C16.0302 10.6515 16.4616 11.086 16.4616 11.6222C16.4616 12.1553 16.0302 12.5897 15.494 12.5897H6.53303C6.15092 12.5897 5.84277 12.901 5.84277 13.28C5.84277 13.6621 6.15092 13.9703 6.53303 13.9703H19.3397C19.8728 13.9703 20.3073 14.4047 20.3073 14.9409C20.3073 15.474 19.8728 15.9085 19.3397 15.9085H10.767C10.388 15.9085 10.0767 16.2167 10.0767 16.5988C10.0767 16.9809 10.388 17.289 10.767 17.289H17.3367C17.8698 17.289 18.3043 17.7235 18.3043 18.2597C18.3043 18.7928 17.8698 19.2273 17.3367 19.2273H12.3817C12.0027 19.2273 11.6914 19.5354 11.6914 19.9175C11.6914 20.2996 12.0027 20.6078 12.3817 20.6078H21.3581C21.8943 20.6078 22.3287 21.0423 22.3287 21.5754C22.3287 22.1116 21.8943 22.546 21.3581 22.546H13.6482V24.133L29.5333 33.3035V11.0243L13.6482 6.56543Z" fill="#38B6FF"/>
</g>
<mask id="mask3_160_5766" style="mask-type:luminance" maskUnits="userSpaceOnUse" x="0" y="8" width="13" height="16">
<path d="M0.756836 8.5957H12.9842V23.5841H0.756836V8.5957Z" fill="white"/>
</mask>
<g mask="url(#mask3_160_5766)">
<path d="M10.596 21.9508H4.92917C4.5594 21.9508 4.26049 22.2497 4.26049 22.6195C4.26049 22.9862 4.5594 23.2851 4.92917 23.2851H10.596C10.9658 23.2851 11.2647 22.9862 11.2647 22.6195C11.2647 22.2497 10.9658 21.9508 10.596 21.9508ZM7.76107 17.079C7.76107 16.7123 7.46216 16.4103 7.09546 16.4103H1.42552C1.05574 16.4103 0.756836 16.7123 0.756836 17.079C0.756836 17.4488 1.05574 17.7477 1.42552 17.7477H7.09546C7.46216 17.7477 7.76107 17.4488 7.76107 17.079ZM12.1768 8.91919H6.5069C6.1402 8.91919 5.8413 9.21809 5.8413 9.58479C5.8413 9.95457 6.1402 10.2535 6.5069 10.2535H12.1768C12.5466 10.2535 12.8455 9.95457 12.8455 9.58479C12.8455 9.21809 12.5466 8.91919 12.1768 8.91919Z" fill="#38B6FF"/>
</g>
<path d="M61.8166 21.5296V24.6234H52.5845V11.2251H61.6194V14.2203H55.9002V16.439H60.8305V19.2246H55.9002V21.5296H61.8166Z" fill="#38B6FF"/>
<path d="M69.5244 19.6194L66.8126 18.9784C65.728 18.7258 64.9884 18.3344 64.594 17.8075C64.2057 17.2836 64.0146 16.5256 64.0146 15.5395C64.0146 13.9957 64.4214 12.8586 65.2349 12.1252C66.0546 11.3856 67.3303 11.0159 69.056 11.0159C69.7616 11.0159 70.3903 11.0467 70.9418 11.1022C71.4996 11.1607 72.0173 11.2593 72.4949 11.398V14.3685C71.4102 14.1898 70.6614 14.085 70.2516 14.0604C69.8479 14.0296 69.4257 14.0111 68.982 14.0111C68.3904 14.0111 67.959 14.1097 67.6878 14.3069C67.4166 14.5041 67.281 14.8369 67.281 15.3053C67.281 15.5364 67.3211 15.7121 67.4043 15.8353C67.4844 15.9586 67.6508 16.051 67.8973 16.1065L70.4611 16.6981C71.2007 16.8707 71.7338 17.0402 72.0635 17.2035C72.3901 17.3699 72.6551 17.5794 72.8524 17.8321C73.0804 18.1033 73.2499 18.4546 73.3577 18.8798C73.4625 19.3082 73.518 19.8259 73.518 20.4329C73.518 21.986 73.102 23.1076 72.273 23.7979C71.4503 24.4881 70.1684 24.8333 68.4273 24.8333C67.546 24.8333 66.7079 24.7778 65.9128 24.673C65.1147 24.5683 64.4954 24.4358 64.0516 24.2786V21.1478C64.6186 21.3296 65.2904 21.4744 66.0731 21.5792C66.8619 21.6871 67.6446 21.7395 68.4273 21.7395C69.059 21.7395 69.4935 21.6624 69.7339 21.5053C69.9712 21.3512 70.0913 21.0369 70.0913 20.5685C70.0913 20.2665 70.0482 20.0477 69.9681 19.9152C69.8941 19.7765 69.7462 19.6779 69.5244 19.6194Z" fill="#004AAD"/>
<path d="M79.2671 24.6239H75.9514V11.2256H79.2671V16.3409H83.9633V11.2256H87.279V24.6239H83.9633V19.3237H79.2671V24.6239Z" fill="#004AAD"/>
<path d="M93.7061 11.2251V24.6234H90.3904V11.2251H93.7061Z" fill="#004AAD"/>
<path d="M100.145 20.864V24.6234H96.8293V11.2251H101.723C103.784 11.2251 105.251 11.5887 106.123 12.3098C106.992 13.0247 107.43 14.2326 107.43 15.9336C107.43 17.6099 106.967 18.8518 106.049 19.6561C105.128 20.4634 103.707 20.864 101.784 20.864H100.145ZM104.077 15.9336C104.077 15.3019 103.904 14.8582 103.559 14.6024C103.214 14.3497 102.601 14.2203 101.723 14.2203H100.145V17.9551H101.723C102.616 17.9551 103.233 17.8072 103.572 17.5113C103.908 17.2155 104.077 16.6917 104.077 15.9336Z" fill="#004AAD"/>
<path d="M113.196 20.864V24.6234H109.88V11.2251H114.773C116.835 11.2251 118.302 11.5887 119.174 12.3098C120.043 13.0247 120.48 14.2326 120.48 15.9336C120.48 17.6099 120.018 18.8518 119.1 19.6561C118.178 20.4634 116.758 20.864 114.835 20.864H113.196ZM117.128 15.9336C117.128 15.3019 116.955 14.8582 116.61 14.6024C116.265 14.3497 115.652 14.2203 114.773 14.2203H113.196V17.9551H114.773C115.667 17.9551 116.283 17.8072 116.622 17.5113C116.958 17.2155 117.128 16.6917 117.128 15.9336Z" fill="#004AAD"/>
<path d="M126.246 11.2251V24.6234H122.93V11.2251H126.246Z" fill="#004AAD"/>
<path d="M140.922 11.2251V24.6234H137.755L132.454 16.895V24.6234H129.361V11.2251H132.504L137.816 19.2616V11.2251H140.922Z" fill="#004AAD"/>
<path d="M151.62 19.644H149.315V16.9816H154.727V24.0198C154.323 24.2108 153.608 24.3957 152.582 24.5744C151.562 24.747 150.628 24.8333 149.784 24.8333C147.467 24.8333 145.855 24.3002 144.952 23.2309C144.046 22.1647 143.596 20.3928 143.596 17.9184C143.596 15.5272 144.12 13.783 145.174 12.6799C146.225 11.5705 147.904 11.0159 150.215 11.0159C151.053 11.0159 151.799 11.0374 152.459 11.0775C153.124 11.1114 153.636 11.1607 153.999 11.2254V14.1343C153.531 14.0943 152.97 14.0665 152.323 14.0481C151.673 14.0234 150.97 14.0111 150.215 14.0111C149.402 14.0111 148.798 14.082 148.403 14.2206C148.015 14.3624 147.725 14.612 147.528 14.9725C147.337 15.2529 147.202 15.6319 147.121 16.1065C147.047 16.5841 147.01 17.1881 147.01 17.9184C147.01 18.6179 147.041 19.2003 147.109 19.6687C147.183 20.1371 147.297 20.5161 147.454 20.8027C147.658 21.191 147.941 21.4621 148.305 21.6162C148.665 21.7734 149.232 21.8504 150.006 21.8504C150.258 21.8504 150.523 21.8442 150.795 21.8257C151.072 21.8011 151.349 21.7641 151.62 21.7148V19.644Z" fill="#004AAD"/>
<path d="M163.315 24.8333C160.998 24.8333 159.365 24.3248 158.422 23.3049C157.485 22.2787 157.017 20.4822 157.017 17.9184C157.017 15.4779 157.51 13.7214 158.496 12.6429C159.488 11.5582 161.097 11.0159 163.315 11.0159C165.639 11.0159 167.272 11.5305 168.209 12.5566C169.146 13.5858 169.614 15.3731 169.614 17.9184C169.614 19.5393 169.404 20.8489 168.985 21.8504C168.566 22.8457 167.907 23.5853 167.013 24.0691L169.614 27.3601H165.818L163.87 24.8209C163.812 24.8271 163.741 24.8333 163.661 24.8333C163.587 24.8333 163.469 24.8333 163.315 24.8333ZM160.776 20.778C160.955 21.1324 161.226 21.382 161.59 21.5299C161.96 21.6717 162.533 21.7395 163.315 21.7395C164.095 21.7395 164.665 21.6717 165.029 21.5299C165.399 21.382 165.673 21.1324 165.855 20.778C166.002 20.4915 166.104 20.1217 166.163 19.6687C166.227 19.2096 166.261 18.6272 166.261 17.9184C166.261 17.1881 166.227 16.5934 166.163 16.1311C166.104 15.672 166.002 15.2991 165.855 15.0095C165.682 14.6397 165.414 14.3809 165.053 14.2329C164.69 14.085 164.11 14.0111 163.315 14.0111C162.517 14.0111 161.938 14.085 161.577 14.2329C161.214 14.3809 160.949 14.6397 160.776 15.0095C160.628 15.2991 160.521 15.672 160.456 16.1311C160.397 16.5934 160.37 17.1881 160.37 17.9184C160.37 18.6272 160.397 19.2096 160.456 19.6687C160.521 20.1217 160.628 20.4915 160.776 20.778Z" fill="#004AAD"/>
<path d="M180.358 18.9781V11.2251H183.673V18.9781C183.673 20.9349 183.196 22.4017 182.244 23.3785C181.288 24.3492 179.855 24.833 177.942 24.833C175.936 24.833 174.472 24.3738 173.554 23.4525C172.642 22.5249 172.186 21.0335 172.186 18.9781V11.2251H175.489V18.9781C175.489 20.0628 175.655 20.7962 175.994 21.1721C176.33 21.5512 176.98 21.7391 177.942 21.7391C178.903 21.7391 179.544 21.5512 179.865 21.1721C180.191 20.7962 180.358 20.0628 180.358 18.9781Z" fill="#004AAD"/>
<path d="M198.839 17.9184C198.839 20.3528 198.34 22.1154 197.348 23.2062C196.362 24.2909 194.759 24.8333 192.541 24.8333C190.223 24.8333 188.59 24.3248 187.647 23.3049C186.71 22.2787 186.242 20.4822 186.242 17.9184C186.242 15.4779 186.735 13.7214 187.721 12.6429C188.713 11.5582 190.322 11.0159 192.541 11.0159C194.864 11.0159 196.497 11.5305 197.434 12.5566C198.371 13.5858 198.839 15.3731 198.839 17.9184ZM190.001 20.778C190.18 21.1324 190.451 21.382 190.815 21.5299C191.185 21.6717 191.758 21.7395 192.541 21.7395C193.32 21.7395 193.89 21.6717 194.254 21.5299C194.624 21.382 194.898 21.1324 195.08 20.778C195.228 20.4915 195.329 20.1217 195.388 19.6687C195.453 19.2096 195.486 18.6272 195.486 17.9184C195.486 17.1881 195.453 16.5934 195.388 16.1311C195.329 15.672 195.228 15.2991 195.08 15.0095C194.907 14.6397 194.639 14.3809 194.278 14.2329C193.915 14.085 193.336 14.0111 192.541 14.0111C191.742 14.0111 191.163 14.085 190.803 14.2329C190.439 14.3809 190.174 14.6397 190.001 15.0095C189.853 15.2991 189.746 15.672 189.681 16.1311C189.622 16.5934 189.595 17.1881 189.595 17.9184C189.595 18.6272 189.622 19.2096 189.681 19.6687C189.746 20.1217 189.853 20.4915 190.001 20.778Z" fill="#004AAD"/>
<path d="M211.357 11.2251V14.2203H207.708V24.6234H204.392V14.2203H200.744V11.2251H211.357Z" fill="#004AAD"/>
<path d="M222.941 21.5296V24.6234H213.709V11.2251H222.744V14.2203H217.025V16.439H221.955V19.2246H217.025V21.5296H222.941Z" fill="#004AAD"/>
</svg>
